<?xml version="1.0" standalone="no"?>
<!DOCTYPE svg PUBLIC "-//W3C//DTD SVG 1.1//EN" "http://www.w3.org/Graphics/SVG/1.1/DTD/svg11.dtd" >
<!--
2013-9-30: Created.
-->
<svg>
<metadata>
Created by iconfont
</metadata>
<defs>

<font id="iconfont" horiz-adv-x="1024" >
  <font-face
    font-family="iconfont"
    font-weight="500"
    font-stretch="normal"
    units-per-em="1024"
    ascent="896"
    descent="-128"
  />
    <missing-glyph />
    
    <glyph glyph-name="x" unicode="x" horiz-adv-x="1001"
d="M281 543q-27 -1 -53 -1h-83q-18 0 -36.5 -6t-32.5 -18.5t-23 -32t-9 -45.5v-76h912v41q0 16 -0.5 30t-0.5 18q0 13 -5 29t-17 29.5t-31.5 22.5t-49.5 9h-133v-97h-438v97zM955 310v-52q0 -23 0.5 -52t0.5 -58t-10.5 -47.5t-26 -30t-33 -16t-31.5 -4.5q-14 -1 -29.5 -0.5
t-29.5 0.5h-32l-45 128h-439l-44 -128h-29h-34q-20 0 -45 1q-25 0 -41 9.5t-25.5 23t-13.5 29.5t-4 30v167h911zM163 247q-12 0 -21 -8.5t-9 -21.5t9 -21.5t21 -8.5q13 0 22 8.5t9 21.5t-9 21.5t-22 8.5zM316 123q-8 -26 -14 -48q-5 -19 -10.5 -37t-7.5 -25t-3 -15t1 -14.5
t9.5 -10.5t21.5 -4h37h67h81h80h64h36q23 0 34 12t2 38q-5 13 -9.5 30.5t-9.5 34.5q-5 19 -11 39h-368zM336 498v228q0 11 2.5 23t10 21.5t20.5 15.5t34 6h188q31 0 51.5 -14.5t20.5 -52.5v-227h-327z" />
    

    
    <glyph glyph-name="zhankai" unicode="&#58884;" d="M887.540621 497.742666c-10.580396 10.577916-27.718407 10.577916-38.323364 0l-337.520679-337.521177L174.174875 497.742666c-10.60598 10.577916-27.745014 10.577916-38.324387 0-10.57835-10.577916-10.57835-27.743878 0-38.321794l353.207583-353.206414c0.92306-1.339508 1.976085-2.618641 3.168286-3.811816 5.359274-5.358031 12.42754-7.990998 19.468175-7.907087 7.043705-0.083911 14.110947 2.545986 19.471245 7.907087 1.193224 1.193175 2.243179 2.474354 3.170332 3.813862l353.204513 353.204367C898.119994 469.997766 898.119994 487.16475 887.540621 497.742666z"  horiz-adv-x="1024" />

    
    <glyph glyph-name="tianjia" unicode="&#58890;" d="M895.528512 299.765663c0-18.531052-15.023158-33.55421-33.55421-33.55421L161.454694 266.211453c-18.531052 0-33.55421 15.023158-33.55421 33.55421l0 0c0 18.531052 15.023158 33.55421 33.55421 33.55421l700.519608 0C880.506377 333.319873 895.528512 318.296715 895.528512 299.765663L895.528512 299.765663zM511.715009-84.048863c-18.531052 0-33.55421 15.023158-33.55421 33.55421L478.160799 650.025978c0 18.531052 15.023158 33.55421 33.55421 33.55421l0 0c18.531052 0 33.55421-15.023158 33.55421-33.55421l0-700.519608C545.269219-69.025705 530.246061-84.048863 511.715009-84.048863L511.715009-84.048863z"  horiz-adv-x="1024" />

    
    <glyph glyph-name="close" unicode="&#58886;" d="M563.591 264.372l289.17 287.605c13.665 13.635 13.726 35.699 0.12 49.334-13.635 13.756-35.638 13.756-49.304 0.181l-289.2-287.725-286.732 287.575c-13.545 13.575-35.668 13.695-49.304 0.060-13.635-13.575-13.665-35.668-0.060-49.304l286.612-287.545-288.99-287.485c-13.665-13.575-13.726-35.638-0.15-49.334 6.833-6.893 15.742-10.294 24.712-10.294 8.91 0 17.819 3.401 24.622 10.174l289.080 287.545 289.291-290.194c6.833-6.893 15.742-10.294 24.712-10.294 8.91 0 17.819 3.401 24.592 10.174 13.635 13.635 13.665 35.699 0.060 49.334l-289.23 290.194zM563.591 264.372z"  horiz-adv-x="1024" />

    
    <glyph glyph-name="10" unicode="&#58893;" d="M296.024575 455.469887c30.845519 0 55.825446-25.010627 55.825446-55.825446 0-30.872125-24.979928-55.855122-55.825446-55.855122-30.846542 0-55.855122 24.982998-55.855122 55.855122C240.169453 430.459261 265.179057 455.469887 296.024575 455.469887zM519.439948 455.469887c30.872125 0 55.853076-25.010627 55.853076-55.825446 0-30.872125-24.980951-55.855122-55.853076-55.855122-30.873148 0-55.828516 24.982998-55.828516 55.855122C463.612455 430.459261 488.5668 455.469887 519.439948 455.469887zM742.85532 455.469887c30.816866 0 55.852052-25.010627 55.852052-55.825446 0-30.872125-25.035186-55.855122-55.852052-55.855122-30.872125 0-55.828516 24.982998-55.828516 55.855122C687.026804 430.459261 711.983195 455.469887 742.85532 455.469887zM827.430554 734.764941 196.567399 734.764941c-72.571852 0-131.371026-58.742892-131.371026-131.153062l0-419.776575c0-72.433706 58.799174-131.179668 131.371026-131.179668l262.850523 0 0-183.653787 302.286698 183.653787 65.725934 0c72.54627 0 131.37205 58.745962 131.37205 131.179668L958.802604 603.612902C958.802604 676.022049 899.9758 734.764941 827.430554 734.764941zM903.00274 183.835304c0-41.507346-33.92567-75.325569-75.573209-75.325569l-65.725934 0-15.653515 0-13.33675-8.073886-217.442334-132.163065 0 84.382852 0 55.854099-55.854099 0L196.567399 108.509734c-41.644469 0-75.573209 33.819247-75.573209 75.325569L120.99419 603.612902c0 41.508369 33.927717 75.271334 75.573209 75.271334l630.863155 0c41.646516 0 75.573209-33.762965 75.573209-75.271334L903.003763 183.835304z"  horiz-adv-x="1024" />

    
    <glyph glyph-name="shaixuan" unicode="&#58880;" d="M908.86475 606.011532l0.376577-0.337691c0 0-170.055071-177.226401-244.306168-253.856685-5.253654-5.421476-15.559371-15.375176-18.399045-22.459524-2.971681-7.402597-2.605338-23.26282-2.605338-31.277354 0-146.560984 1.885953-416.20319 1.885953-416.20319s0.51063-30.90794-29.806863-30.92636c-23.486924-0.013303-24.64019 23.789823-24.64019 30.92636 0 200.723557-0.083911 314.258357-0.12075 424.470481-0.013303 29.288047-2.186805 35.017538 0.895393 45.660946 3.595898 12.400425 25.302269 28.629038 34.570353 37.291324 74.040297 69.187779 245.289566 254.800173 245.289566 254.800173l-0.12075 0.294712c5.705955 5.02955 9.525957 12.30628 9.525957 20.699438 0 15.246239-11.971659 27.633361-26.751271 27.633361L169.71431 692.727523c-14.782681 0-26.776853-12.387122-26.776853-27.633361 0-8.369621 3.846608-15.669888 9.547447-20.699438l-0.095167-0.294712c0 0 164.704203-176.23584 240.249783-249.114684 7.460925-7.205099 34.398438-28.821419 39.017642-42.837644 2.755764-8.377808 1.509377-50.490951 1.509377-50.490951l0-206.941166c0 0-3.514033-11.642155-26.729781-11.55722-21.434172 0.078795-25.978674 11.642155-25.978674 11.642155s-2.971681 107.752096 0.008186 207.639061c0.207731 6.865361-1.193175 21.221324-3.254114 27.03268-2.671852 7.526417-12.453636 17.600867-17.990746 22.727631-78.124312 72.246441-244.074901 253.466806-244.074901 253.466806l0.361227 0.342808c-15.253402 14.881942-24.843828 35.755342-24.843828 59.078537 0 45.071522 35.378765 81.583087 79.051427 81.583087l684.950004 0c43.672662 0 79.043241-36.511565 79.043241-81.583087C933.708578 641.766874 924.116105 620.898591 908.86475 606.011532L908.86475 606.011532 908.86475 606.011532 908.86475 606.011532zM908.86475 606.011532"  horiz-adv-x="1024" />

    
    <glyph glyph-name="shoushi" unicode="&#58885;" d="M622.885971-63.111131c-0.938372 0-1.87572 0-2.814092 0-2.499937 3.010567-5.000897 2.987031-7.501858 0-5.627161 0-11.253298 0-16.880459 0-0.49528 2.496867-2.506077 1.831718-4.070712 1.845021-6.771217 0.055259-13.544481 0.023536-20.316721 0.024559-6.580882 1.269923-13.300934 0.74599-19.937075 1.824555-19.609617 3.184529-39.184441 6.77224-58.104349 12.687974-20.590967 6.439666-40.876989 13.912871-59.934021 24.382317-17.134239 9.413394-33.04665 20.48659-47.453778 33.631982-17.587564 16.045441-32.662911 34.284851-45.402049 54.395888-12.665461 19.99438-25.054629 40.166815-37.689391 60.183707-12.885472 20.414959-26.018583 40.675398-38.866193 61.115939-13.011338 20.700461-25.818015 41.528835-38.694277 62.313208-11.881608 19.176758-23.906479 38.267559-35.546587 57.588603-8.900717 14.774495-19.484773 28.618804-24.941042 45.343721-6.325056 19.391652-6.091742 38.117133 4.180206 56.261375 13.538341 23.914666 38.520315 35.843346 66.01246 29.462009 17.126053-3.975545 29.760814-13.528108 39.636742-27.453259 10.447956-14.731516 20.823258-29.515221 31.168883-44.318368 12.574387-17.99177 25.057699-36.049031 37.662785-54.019311 1.321088-1.88186 1.949398-5.494131 5.106298-4.510734 2.861164 0.8913 1.412163 4.093225 1.413186 6.209422 0.070608 127.847783 0.075725 255.69659 0.039909 383.545396-0.002047 9.139148 1.230014 17.974373 4.858658 26.430976 4.472871 10.420327 10.929934 19.164478 20.650319 25.301246 10.339486 6.52767 21.527292 8.562003 33.505092 6.461155 12.05864-2.113127 22.248723-7.626701 30.16809-17.033955 11.210319-13.314237 13.852496-29.438473 13.905708-45.985334 0.221034-67.830875 0.101307-135.663796 0.071631-203.494671-0.002047-3.160993 0.398066-6.093788 1.64957-9.083889 3.054569-7.300266 9.958816-12.094456 17.023722-11.342326 7.408737 0.787946 14.014178 7.001461 14.97097 14.515598 0.62831 4.926196 1.037632 9.918907 1.040702 14.880919 0.059352 88.462774 0.080841 176.925548-0.007163 265.388323-0.011256 11.110035 0.652869 21.989827 4.696975 32.512485 6.430456 16.731056 18.012236 27.545356 35.507702 31.888268 1.846044 0.456395 4.213975 0.155543 4.861728 2.775206 0.937348 0 1.87572 0 2.813069 0 2.188852-3.004427 4.376681-3.004427 6.564509 0 1.251503 0 2.501984 0 3.751441 0 0.798179-2.863211 3.51608-2.218528 5.405103-2.682086 7.704472-1.889023 14.518668-5.373381 20.487613-10.55745 14.32731-12.440333 18.834974-29.359678 18.917862-47.028083 0.432859-92.192725 0.207731-184.387497 0.194428-276.581246-0.001023-5.507434 0.902556-10.809183 2.981914-15.923668 3.858888-9.485025 17.140379-12.375865 24.726148-5.494131 6.187933 5.613858 6.941086 13.05534 6.949272 20.553105 0.092098 78.130452 0.093121 156.260903 0.021489 234.390331-0.011256 12.254092 1.36509 24.173562 6.377244 35.481096 4.341888 9.795087 10.803044 17.773805 20.288069 22.979364 11.332093 6.218632 22.916942 8.951883 36.175921 5.810333 9.93835-2.353604 18.111496-6.963599 24.813129-13.891382 10.890025-11.257391 15.335267-25.698289 15.400758-40.951691 0.302899-71.409376 0.016373-142.820799 0.207731-214.233246 0.065492-24.651446-1.150196-49.328475 0.880043-73.956386 0.710175-8.619308 7.220449-16.291035 17.336854-16.154935 9.231245 0.125867 15.118326 5.806239 16.243963 15.009855 0.827855 6.760984 1.192152 13.617136 1.172709 20.500916-0.145309 51.096748 0.004093 102.19452-0.167822 153.291269-0.027629 8.045233 0.704035 15.861246 3.036149 23.514553 4.047176 13.274328 11.555174 24.232914 23.373337 31.567973 17.056468 10.587126 34.463929 9.218966 51.148937-0.845251 14.470573-8.727779 22.87294-21.676695 23.835871-38.926568 0.309038-2.185782-0.004093-4.680603 2.796696-5.628184 0-33.135678 0-66.271356 0-99.407034-2.672876-2.597151-2.672876-8.656147 0-11.254322 0-4.376681 0-8.752338 0-13.129019-0.313132-0.317225-0.62831-0.635473-0.942465-0.952698 0.314155-0.308015 0.629333-0.61603 0.942465-0.923022 0-107.221 0-214.444047 0-321.665047-4.012384-1.352811-2.440585-4.789073-2.797719-7.504928-0.258896-21.443381-4.844332-42.218544-9.920954-62.889329-4.511757-18.368346-11.632945-35.83823-20.351514-52.532447-5.894244-11.286044-12.770861-22.093181-20.402679-32.383548-10.915607-14.71719-23.508413-27.768437-37.928844-39.024805-13.792121-10.766205-28.591175-19.813255-44.75839-26.730805-12.889565-5.51562-26.109658-10.041704-39.694047-13.096273-12.833283-2.8847-25.536606-6.664793-38.785352-7.634888-9.441023-0.691755-18.662035-3.555989-28.245298-2.977821C624.33702-61.222107 623.003652-61.251783 622.885971-63.111131zM571.305199-63.111131c-0.001023 0.623193-0.001023 1.24741-0.00307 1.86958 6.77224-0.001023 13.545504 0.029676 20.316721-0.024559 1.563612-0.013303 3.574409 0.652869 4.070712-1.845021C587.561441-63.111131 579.43332-63.111131 571.305199-63.111131zM868.589976 520.201032c-2.672876 2.597151-2.672876 8.656147 0 11.254322C868.589976 527.703913 868.589976 523.952472 868.589976 520.201032zM868.589976 176.028365c-0.932232-0.001023-1.865487-0.002047-2.798742-0.002047 0.35918 2.715855-1.213641 6.152117 2.798742 7.504928C868.589976 181.028239 868.589976 178.529325 868.589976 176.028365zM612.570022-63.111131c2.50096 2.987031 5.001921 3.010567 7.501858 0C617.571942-63.111131 615.070982-63.111131 612.570022-63.111131zM865.792257 636.489548c0.932232 0 1.864464-0.001023 2.796696-0.001023 0-1.87572 0-3.751441 0-5.627161C865.788164 631.808946 866.101295 634.303766 865.792257 636.489548zM542.232047 830.613804c-2.187829-3.004427-4.375657-3.004427-6.564509 0C537.855366 830.613804 540.044218 830.613804 542.232047 830.613804zM625.703133-61.24462c-0.001023-0.621147-0.00307-1.24434-0.004093-1.866511-0.937348 0-1.87572 0-2.813069 0C623.003652-61.251783 624.33702-61.222107 625.703133-61.24462zM867.647511 506.119315c0.314155 0.318248 0.629333 0.635473 0.942465 0.952698 0-0.313132 0-0.62524 0-0.938372C868.276844 506.129548 867.960643 506.125455 867.647511 506.119315zM867.647511 506.119315c0.314155 0.005117 0.629333 0.010233 0.942465 0.014326 0-0.312108 0-0.62524 0-0.938372C868.276844 505.504308 867.960643 505.8113 867.647511 506.119315z"  horiz-adv-x="1024" />

    
    <glyph glyph-name="collect" unicode="&#58887;" d="M734.312 860.325c-87.909 0-169.647-44.099-223.447-116.819-53.769 72.737-135.49 116.819-223.447 116.819-158.47 0-287.398-140.957-287.398-314.233 0-103.371 46.177-175.887 83.296-234.151 107.88-169.236 379.126-379.846 390.616-388.725 11.068-8.556 24.007-12.836 36.917-12.836 12.94 0 25.861 4.28 36.917 12.836 11.503 8.879 282.765 219.489 390.614 388.725 37.137 58.265 83.329 130.781 83.329 234.151-0.001 173.275-128.928 314.233-287.398 314.233zM885.906 351.935c-102.689-161.142-375.057-371.614-375.057-371.614s-272.337 210.473-375.058 371.614c-37.884 59.491-71.805 116.034-71.805 194.158 0 134.905 100.025 244.309 223.433 244.309 91.199 0 169.491-59.834 204.224-145.493v0.427h0.094c2.588-8.932 10.132-15.445 19.113-15.445 9.012 0 16.557 6.512 19.128 15.445h0.265c34.813 85.404 112.996 145.066 204.070 145.066 123.378 0 223.433-109.405 223.433-244.309-0-78.124-33.924-134.667-71.839-194.158z"  horiz-adv-x="1024" />

    
    <glyph glyph-name="dizhi" unicode="&#58881;" d="M508.1088 304.5888c-75.78624 0-137.43104 61.6448-137.43104 137.39008 0 75.79648 61.65504 137.41056 137.43104 137.41056 75.776 0 137.39008-61.62432 137.39008-137.41056C645.48864 366.2336 583.8848 304.5888 508.1088 304.5888M508.1088 533.58592c-50.52416 0-91.62752-41.05216-91.62752-91.5968 0-50.50368 41.1136-91.58656 91.62752-91.58656 50.50368 0 91.58656 41.08288 91.58656 91.58656C599.68512 492.53376 558.61248 533.58592 508.1088 533.58592M769.95584 644.97664c-4.3008 6.07232-8.64256 12.04224-13.33248 17.77664-1.03424 1.30048-2.0992 2.58048-3.19488 3.79904-4.87424 5.7856-10.01472 11.3664-15.26784 16.82432-2.57024 2.65216-4.98688 5.07904-7.2704 7.26016-4.29056 4.16768-8.71424 8.17152-13.28128 12.0832-1.4336 1.19808-2.51904 2.10944-2.85696 2.37568-10.00448 7.76192-24.38144 5.9904-32.16384-4.00384-5.28384-6.8096-6.18496-15.6672-2.9696-23.11168 1.35168-3.1744 3.6352-6.03136 6.5024-8.41728 1.06496-0.91136 2.07872-1.92512 3.15392-2.88768 1.7408-1.46432 4.22912-3.7376 7.41376-6.73792 3.65568-3.4816 7.23968-7.02464 10.71104-10.69056 2.78528-2.94912 5.51936-5.94944 8.21248-9.02144 2.11968-2.44736 4.27008-4.85376 6.2976-7.39328 38.07232-47.1552 60.99968-107.0592 60.99968-172.22656 0-132.87424-212.67456-362.68032-272.56832-421.67296-89.7024 89.81504-277.08416 302.1312-277.08416 421.67296 0 151.52128 123.2896 274.83136 274.82112 274.83136 8.36608 0 16.56832-0.52224 24.73984-1.25952 1.5872-0.11264 3.16416-0.22528 4.70016-0.39936 15.81056-1.66912 31.10912-4.87424 46.0288-9.14432 5.376-1.6384 7.07584-2.2016 12.544-4.32128 0.4096-0.1536 0.84992-0.09216 1.30048-0.22528 11.44832-3.72736 23.92064 1.85344 28.39552 13.18912 4.58752 11.79648-1.2288 25.088-12.99456 29.68576-6.44096 2.52928-12.82048 4.62848-19.16928 6.57408-18.4832 5.70368-32.9216 7.8848-50.46272 9.6768-1.81248 0.19456-3.62496 0.34816-5.40672 0.512-2.4576 0.2048-7.46496 0.47104-7.46496 0.3584-7.38304 0.52224-14.71488 1.14688-22.20032 1.14688-176.7936 0-320.62464-143.85152-320.62464-320.63488 0-172.16512 293.9392-457.6768 306.46272-469.73952 4.38272-4.21888 10.11712-6.43072 15.9232-6.43072 3.45088 0 6.94272 0.768 10.19904 2.4064 12.8 6.4 308.66432 298.94656 308.66432 473.76384C828.71296 529.22368 806.8096 592.76288 769.95584 644.97664"  horiz-adv-x="1024" />

    
    <glyph glyph-name="bianjiqianbixieshuru" unicode="&#58894;" d="M858.24 663.04l-132.48 133.12c-48.64 48.64-128 48.64-177.28 0l-460.8-461.44C72.32 318.72 64 298.24 64 277.12l0-211.84c0-42.24 21.76-64 64-64l213.76 1.28c21.76 0 42.24 8.96 56.96 23.68l459.52 460.8C907.52 535.04 907.52 614.4 858.24 663.04zM333.44 65.92 128 64.64 128 268.8c0 3.84 1.28 7.68 1.92 11.52 1.28-4.48 3.84-8.32 7.04-12.16l193.28-193.28c3.84-3.84 7.68-5.76 12.16-7.04C339.2 67.2 336.64 65.92 333.44 65.92zM382.08 97.28c0 7.68-3.2 14.72-8.96 20.48L179.84 311.04c-5.12 5.12-12.16 7.68-19.2 8.32l312.32 312.32 221.44-221.44L382.08 97.28zM814.08 530.56l-72.32-72.96L520.32 679.04l72.96 72.96c24.32 24.32 64 24.32 88.32 0l132.48-133.12C838.4 594.56 838.4 554.88 814.08 530.56z"  horiz-adv-x="1024" />

    
    <glyph glyph-name="sousuosousuokuangneidetubiao" unicode="&#58892;" d="M468.109885-26.338622c-249.561869 0-452.596052 203.032136-452.596052 452.576609C15.513834 675.822368 218.548016 878.856551 468.109885 878.856551c249.564939 0 452.600145-203.034183 452.600145-452.619588C920.710031 176.693514 717.700407-26.338622 468.109885-26.338622L468.109885-26.338622zM468.109885 833.120904C243.769444 833.120904 61.248458 650.599917 61.248458 426.236963c0-224.346581 182.520987-406.843008 406.860405-406.843008 224.369094 0 406.865521 182.496427 406.865521 406.843008C874.975407 650.599917 692.478979 833.120904 468.109885 833.120904L468.109885 833.120904zM468.109885 833.120904M985.626529-110.855528c-5.599532 0-11.226692 2.058892-15.663748 6.198166L753.739205 98.330772c-9.191336 8.641821-9.671267 23.13593-1.030469 32.330336 8.66945 9.191336 23.143093 9.629311 32.334429 1.031493l216.223576-202.986087c9.196453-8.643867 9.676383-23.144116 1.031493-32.336476C997.818199-108.433362 991.733621-110.855528 985.626529-110.855528L985.626529-110.855528zM985.626529-110.855528M210.912106 545.200402c3.125177-1.868557 6.558369-2.7486 9.949606-2.7486 6.678096 0 13.164834 3.414773 16.823154 9.555633 55.520501 93.473905 157.461241 151.551648 266.039145 151.551648 10.796904 0 19.532869 8.729825 19.532869 19.525706 0 10.794857-8.735965 19.529799-19.532869 19.529799-122.288161 0-237.102093-65.396429-299.627125-170.658821C198.586382 562.690752 201.639928 550.69351 210.912106 545.200402L210.912106 545.200402zM210.912106 545.200402M196.227662 494.88239c-10.488889 2.422166-20.99415-4.058432-23.457248-14.567787-5.832845-24.929786-9.135054-40.378639-9.135054-68.106144 0-10.793834 8.754385-19.530822 19.531845-19.530822 10.794857 0 19.529799 8.738012 19.529799 19.530822 0 23.531949 2.631944 35.814694 8.106632 59.2218C213.260593 481.93859 206.73804 492.424408 196.227662 494.88239L196.227662 494.88239zM196.227662 494.88239"  horiz-adv-x="1024" />

    
    <glyph glyph-name="wukong" unicode="&#58895;" d="M504.787121 879.412647c-278.279557 0-503.868569-225.589013-503.868569-503.868569 0-278.279557 225.589013-503.868569 503.868569-503.868569s503.868569 225.589013 503.868569 503.868569C1008.65569 653.823634 783.06567 879.412647 504.787121 879.412647zM504.787121-88.015006c-256.016628 0-463.559084 207.542456-463.559084 463.559084 0 256.016628 207.542456 463.559084 463.559084 463.559084s463.559084-207.542456 463.559084-463.559084C968.346205 119.52745 760.803749-88.015006 504.787121-88.015006zM813.328016 589.58543c0 12.974616-10.517753 23.492368-23.492368 23.492368-3.959399 0-7.686011-0.983551-10.959141-2.712828l-0.002015 0.004031-0.159222-0.086665c-0.05341-0.028217-0.105812-0.057441-0.159222-0.086665l-145.717782-79.351238c-0.996652-0.456505-1.954002-0.977505-2.872051-1.563-6.523082-4.174047-10.859375-11.466033-10.859375-19.785911 0-8.18081 4.18614-15.378069 10.528838-19.584364 1.123627-0.746733 2.317795-1.394708 3.567389-1.940902l142.658292-77.602814c3.905989-2.895229 8.740104-4.608382 13.974291-4.608382 12.974616 0 23.492368 10.517753 23.492368 23.492368 0 9.220795-5.313798 17.196027-13.045157 21.041551l0.002015 0.004031L689.611151 509.495521l111.300536 59.371841c0.061472 0.032248 0.122944 0.064495 0.184416 0.097751l0.059456 0.032248-0.001008 0.002015C808.410259 572.996062 813.328016 580.715328 813.328016 589.58543zM376.371178 487.970256c1.248586 0.546194 2.442755 1.195176 3.567389 1.940902 6.34169 4.206295 10.528838 11.402546 10.528838 19.584364 0 8.319878-4.337301 15.611864-10.860383 19.785911-0.917041 0.585495-1.874391 1.106495-2.871043 1.563l-145.701659 79.342168c-0.063487 0.034263-0.125967 0.068526-0.189455 0.102789l-0.146122 0.079611-0.002015-0.004031c-3.272122 1.729277-6.999742 2.712828-10.958134 2.712828-12.974616 0-23.492368-10.517753-23.492368-23.492368 0-8.870102 4.917757-16.589369 12.174472-20.587062l-0.001008-0.002015 0.057441-0.03124c0.06248-0.034263 0.125967-0.066511 0.188447-0.099766l111.297513-59.370833-110.672716-59.19851 0.002015-0.004031c-7.730352-3.845525-13.045157-11.820757-13.045157-21.041551 0-12.974616 10.517753-23.492368 23.492368-23.492368 5.235194 0 10.069309 1.714161 13.975299 4.60939L376.371178 487.970256zM735.081259 152.098522c-2.663449 124.911034-104.744198 225.355217-230.294137 225.355217-125.898616 0-228.19099-101.003478-230.307238-226.397218-0.030232-0.517977-0.050387-1.036962-0.050387-1.563 0-0.268058 0.012093-0.533093 0.020155-0.800143-0.003023-0.533093-0.020155-1.06417-0.020155-1.598271l0.113874 0c1.212308-13.411974 12.479817-23.921664 26.206204-23.921664 14.536608 0 26.321086 11.78347 26.321086 26.320079 0 0.447435-0.012093 0.892855-0.034263 1.334244 1.987258 96.478738 80.795325 174.08256 177.749715 174.08256 97.035009 0 175.891448-77.731804 177.756769-174.320386-0.001008-0.07558-0.006046-0.151161-0.006046-0.227749 0-0.462551 0.013101-0.922079 0.036279-1.378584 0.002015-0.247903 0.012093-0.493791 0.014108-0.741695 0.018139-0.05341 0.036279-0.104805 0.054418-0.157207 1.155874-13.458329 12.441523-24.023446 26.200158-24.023446 13.419028 0 24.483982 10.05117 26.093338 23.033848l0.209609 0c0 0.728594-0.021162 1.450134-0.027209 2.176712 0.015116 0.361778 0.027209 0.724563 0.027209 1.090372C735.144746 150.946679 735.118545 151.52512 735.081259 152.098522zM504.787121 879.539622c-277.982274 0-503.330437-225.348163-503.330437-503.32943 0-277.98429 225.348163-503.330437 503.330437-503.330437s503.330437 225.346148 503.330437 503.330437C1008.117559 654.192466 782.769395 879.539622 504.787121 879.539622zM504.787121-74.571792c-248.960452 0-450.781984 201.820524-450.781984 450.781984 0 248.959444 201.821532 450.781984 450.781984 450.781984 248.96146 0 450.780977-201.82254 450.780977-450.781984C955.568098 127.248732 753.748581-74.571792 504.787121-74.571792z"  horiz-adv-x="1024" />

    
    <glyph glyph-name="xiangmu" unicode="&#58882;" d="M471.424 495.36c0-46.656-38.208-84.864-84.864-84.864L84.864 410.496C38.208 410.496 0 448.704 0 495.36L0 809.92c0 46.656 38.208 84.864 84.864 84.864L386.56 894.784c46.656 0 84.864-38.208 84.864-84.864L471.424 495.36 471.424 495.36zM471.424 495.36M471.424-43.136C471.424-89.792 433.216-128 386.56-128L84.864-128C38.208-128 0-89.792 0-43.136L0 271.36C0 318.08 38.208 356.288 84.864 356.288L386.56 356.288c46.656 0 84.864-38.208 84.864-84.864L471.424-43.136 471.424-43.136zM471.424-43.136M1022.784 495.36c0-46.656-38.208-84.864-84.864-84.864L636.224 410.496c-46.656 0-84.864 38.208-84.864 84.864L551.36 809.92c0 46.656 38.208 84.864 84.864 84.864l301.696 0c46.656 0 84.864-38.208 84.864-84.864L1022.784 495.36 1022.784 495.36zM1022.784 495.36M1022.784-43.136c0-46.656-38.208-84.864-84.864-84.864L636.224-128c-46.656 0-84.864 38.208-84.864 84.864L551.36 271.36c0 46.656 38.208 84.864 84.864 84.864l301.696 0c46.72 0 84.864-38.208 84.864-84.864L1022.784-43.136 1022.784-43.136zM1022.784-43.136"  horiz-adv-x="1024" />

    
    <glyph glyph-name="aixin" unicode="&#58888;" d="M1013.8 544.6c0 169.4-131.3 307.2-292.4 307.2-79.6 0-154.9-34.8-209.3-94.1C457.5 817 382.2 851.8 302.7 851.8c-161.2 0-292.4-137.7-292.4-307.2 0-5.7 0.5-10.8 1-14.9-0.1-1.4-0.2-2.7-0.2-4.2 0-30 7.2-62.9 21.3-98 0.5-1.3 0.9-2.5 1.4-3.6 89.1-216.4 432.1-465.3 446.7-476.8 9.1-7.1 19.8-10.5 30.7-10.5 11 0 21.8 3.6 31 10.8 12.5 9.9 305 223 421.2 424.8 4.4 6.8 7.7 13.4 10.7 19.1 0.9 1.8 1.7 3.6 2.7 5.4l0.4 0.8c0.4 0.7 0.8 1.4 1.3 2 7 13.7 12.5 26.5 16.9 38.9 12 32 18 60.4 18 87 0 2-0.1 3.9-0.2 5.4C1013.4 534.3 1013.8 539 1013.8 544.6z"  horiz-adv-x="1024" />

    
    <glyph glyph-name="bianji" unicode="&#58891;" d="M167.9532 273.12989l-54.281277-199.027939c-3.087315-11.482519 0.097214-23.980157 8.685823-32.761148 6.41613-6.272867 14.909571-9.698896 23.786753-9.746992 3.040243 0 5.983271 0.385786 9.022491 1.061169l197.484793 53.895491c0.2415 0.048095 4.874007 1.013073 6.562463 2.65241l540.439726 540.487821c15.778358 15.778358 15.778358 41.542138-0.048095 57.368592L767.499092 819.168124c-15.72924 15.778358-41.494043 15.730263-57.319473-0.048095L169.641655 278.679279C169.062464 278.245398 168.145581 274.337391 167.9532 273.12989L167.9532 273.12989zM739.176023 776.322293l121.250528-121.346719-101.034091-100.889805L638.09486 675.288203 739.176023 776.322293 739.176023 776.322293zM603.981924 641.128195 725.231429 519.926786 361.240391 156.222273 240.086054 277.184229 603.981924 641.128195 603.981924 641.128195zM316.2712 121.484098l-148.799978-36.766368 36.668131 148.945287L316.2712 121.484098 316.2712 121.484098zM890.626363-62.977078 133.373637-62.977078c-13.287631 0-24.059975 10.772344-24.059975 24.059975 0 13.287631 10.772344 24.059975 24.059975 24.059975l757.252727 0c13.287631 0 24.059975-10.772344 24.059975-24.059975C914.686339-52.204733 903.913994-62.977078 890.626363-62.977078z"  horiz-adv-x="1024" />

    
    <glyph glyph-name="wo" unicode="&#58883;" d="M513.493004 302.106852c-130.548288 0-386.809743-62.856583-386.809743-193.404871l0-108.98211 773.619486 0 0 108.98211C900.302747 239.250268 644.041292 302.106852 513.493004 302.106852zM513.493004 386.529613c106.372679 0 193.404871 87.032192 193.404871 193.404871s-87.032192 193.404871-193.404871 193.404871c-106.372679 0-193.404871-87.032192-193.404871-193.404871S407.121348 386.529613 513.493004 386.529613z"  horiz-adv-x="1024" />

    
    <glyph glyph-name="chakan" unicode="&#58889;" d="M670.72 768a0 0.5 0 1 0 0 0 0 0.5 0 1 0 0 0ZM1280 435.2l0 0 0 0 0 0 0 0ZM281.6 537.6l430.08 0c15.36 0 25.6 10.24 25.6 25.6 0 15.36-10.24 25.6-25.6 25.6L281.6 588.8C266.24 588.8 256 578.56 256 563.2 256 547.84 266.24 537.6 281.6 537.6zM281.6 384l358.4 0c15.36 0 25.6 10.24 25.6 25.6C665.6 424.96 655.36 435.2 640 435.2l-358.4 0C266.24 435.2 256 424.96 256 409.6 256 394.24 266.24 384 281.6 384zM819.2 793.6 153.6 793.6C128 793.6 102.4 768 102.4 742.4l0-716.8c0-25.6 25.6-51.2 51.2-51.2l358.4 0c15.36 0 25.6 10.24 25.6 25.6 0 15.36-10.24 25.6-25.6 25.6L179.2 25.6C163.84 25.6 153.6 35.84 153.6 51.2l0 665.6C153.6 732.16 163.84 742.4 179.2 742.4l614.4 0C808.96 742.4 819.2 732.16 819.2 716.8L819.2 384c0-15.36 10.24-25.6 25.6-25.6S870.4 368.64 870.4 384L870.4 742.4C870.4 768 844.8 793.6 819.2 793.6zM829.44 76.8c25.6 25.6 40.96 61.44 40.96 102.4 0 87.04-66.56 153.6-153.6 153.6s-153.6-66.56-153.6-153.6 66.56-153.6 153.6-153.6c25.6 0 51.2 5.12 71.68 20.48l81.92-81.92c10.24-10.24 25.6-10.24 35.84 0 10.24 10.24 10.24 25.6 0 35.84L829.44 76.8zM716.8 76.8c-56.32 0-102.4 46.08-102.4 102.4 0 56.32 46.08 102.4 102.4 102.4s102.4-46.08 102.4-102.4C819.2 122.88 773.12 76.8 716.8 76.8z"  horiz-adv-x="1024" />

    
    <glyph glyph-name="zhankai-copy" unicode="&#58896;" d="M709.743 8.461c10.578 10.58 10.578 27.718 0 38.322l-337.521 337.521 337.52 337.522c10.578 10.606 10.578 27.745 0 38.324-10.578 10.578-27.744 10.578-38.322 0l-353.206-353.208c-1.34-0.923-2.619-1.976-3.812-3.169-5.358-5.359-7.991-12.427-7.907-19.468-0.084-7.043 2.546-14.111 7.907-19.471 1.193-1.193 2.473-2.243 3.813-3.17l353.204-353.205c10.578-10.579 27.743-10.579 38.322 0z"  horiz-adv-x="1024" />

    
    <glyph glyph-name="zhankai-copy1" unicode="&#58897;" d="M136.459 186.257c10.58-10.578 27.718-10.578 38.322 0l337.521 337.521 337.522-337.52c10.606-10.578 27.745-10.578 38.324 0 10.578 10.578 10.578 27.744 0 38.322l-353.208 353.206c-0.923 1.34-1.976 2.619-3.169 3.812-5.359 5.358-12.427 7.991-19.468 7.907-7.043 0.084-14.111-2.546-19.471-7.907-1.193-1.193-2.243-2.473-3.17-3.813l-353.205-353.204c-10.579-10.578-10.579-27.743 0-38.322z"  horiz-adv-x="1024" />

    
    <glyph glyph-name="zhankai-copy2" unicode="&#58898;" d="M314.257 759.541c-10.578-10.58-10.578-27.718 0-38.322l337.521-337.521-337.52-337.522c-10.578-10.606-10.578-27.745 0-38.324 10.578-10.578 27.744-10.578 38.322 0l353.206 353.208c1.34 0.923 2.619 1.976 3.812 3.169 5.358 5.359 7.991 12.427 7.907 19.468 0.084 7.043-2.546 14.111-7.907 19.471-1.193 1.193-2.473 2.243-3.813 3.17l-353.204 353.205c-10.578 10.579-27.743 10.579-38.322 0z"  horiz-adv-x="1024" />

    
    <glyph glyph-name="Hamburger" unicode="&#58899;" d="M958.06 658.319c0-9.612-7.792-17.405-17.404-17.405H79.092c-9.612 0-17.404 7.793-17.404 17.405v90.03c0 9.612 7.792 17.405 17.404 17.405h861.563c9.612 0 17.404-7.793 17.404-17.405v-90.03zM958.06 338.512c0-9.612-7.792-17.404-17.404-17.404H79.092c-9.612 0-17.404 7.792-17.404 17.404v90.03c0 9.612 7.792 17.405 17.404 17.405h861.563c9.612 0 17.404-7.793 17.404-17.405v-90.03zM958.06 18.705c0-9.612-7.792-17.404-17.404-17.404H79.092c-9.612 0-17.404 7.792-17.404 17.404v90.03c0 9.613 7.792 17.405 17.404 17.405h861.563c9.612 0 17.404-7.792 17.404-17.404v-90.03z"  horiz-adv-x="1024" />

    
    <glyph glyph-name="delete" unicode="&#58900;" d="M768 480v-448a32 32 0 0 0-32-32H288a32 32 0 0 0-32 32V480a32 32 0 0 1-64 0v-448a96.11 96.11 0 0 1 96-96h448a96.11 96.11 0 0 1 96 96V480a32 32 0 0 1-64 0zM864 704H672v32a96.11 96.11 0 0 1-96 96H448a96.11 96.11 0 0 1-96-96v-32H160a96 96 0 0 1 0-192h704a96 96 0 0 1 0 192z m-448 32a32 32 0 0 0 32 32h128a32 32 0 0 0 32-32v-32H416v32z m448-160H160a32 32 0 0 0 0 64h704a32 32 0 0 0 0-64zM352 96a32 32 0 0 1 32 32V384a32 32 0 0 1-64 0v-256a32 32 0 0 1 32-32z m320 0a32 32 0 0 1 32 32V384a32 32 0 0 1-64 0v-256a32 32 0 0 1 32-32z m-160 0a32 32 0 0 1 32 32V384a32 32 0 0 1-64 0v-256a32 32 0 0 1 32-32z"  horiz-adv-x="1024" />

    
    <glyph glyph-name="edit" unicode="&#58901;" d="M770.204 175.886c0-79.544-64.535-144.079-144.079-144.079H209.896c-79.543 0-144.079 64.535-144.079 144.079V592.114c0 79.544 64.536 144.079 144.079 144.079h416.229c20.011 0 40.022-4.002 58.532-12.507 4.502-2.001 8.004-6.503 9.005-11.506 1.001-5.503-0.5-10.506-4.503-14.508l-24.513-24.514c-4.503-4.502-10.506-6.003-16.009-4.002-7.505 2.001-15.009 3.001-22.513 3.001H209.896c-44.024 0-80.044-36.02-80.044-80.044v-416.229c0-44.024 36.02-80.044 80.044-80.044h416.229c44.024 0 80.044 36.02 80.044 80.044V238.92c0 4.003 1.501 8.005 4.502 11.007l32.018 32.018c5.003 5.002 11.507 6.003 17.51 3.502 6.004-2.502 10.006-8.005 10.006-14.509v-95.052z m96.053 320.176L530.072 159.877H385.993V303.956l336.185 336.185 144.079-144.079zM568.093 265.936l-76.041 76.041-58.032-58.031v-28.016h48.026v-48.026h28.016l58.031 58.032z m145.58 301.665L538.577 392.505c-4.503-4.503-5.003-12.007-0.5-16.509 4.502-4.503 12.006-4.003 16.509 0.5l175.096 175.096c4.503 4.503 5.003 12.007 0.501 16.509-4.503 4.503-12.007 4.003-16.51-0.5z m184.601-39.522L754.195 672.158l46.025 46.025c18.51 18.51 49.527 18.51 68.037 0l76.042-76.042c18.51-18.51 18.51-49.527 0-68.037l-46.025-46.025z"  horiz-adv-x="1024" />

    
    <glyph glyph-name="good" unicode="&#58903;" d="M938.784 305.16600000000005l0.095-0.027-104.375-293.647-0.346 0.077c-16-36.434-52.288-61.942-94.629-61.942H449.946c-22.847 0-41.37 18.52-41.37 41.37s18.523 41.368 41.37 41.368h188.246c-0.01 0.041-0.006 0.09-0.014 0.13l100.786-0.016c0.199-0.006 0.364-0.114 0.565-0.114 8.927 0 16.368 5.724 19.264 13.65l0.316 0.225 99.68 280.533-0.157 0.23c3.119 8.084 5.004 16.786 5.004 25.97 0 39.723-32.016 71.904-71.639 72.32l-0.63 0.927v-0.85H676.294c-49.287 0-71.728 37.25-56.217 70.862 15.514 33.613 16.03 172.66 16.03 177.348v20.686c0 22.847-18.522 41.37-41.369 41.37-22.848 0-41.369-18.523-41.369-41.37v-20.686c0-134.399-98.714-245.445-227.53-265.389v-417.195c0-22.848-18.522-41.369-41.368-41.369H118.997c-22.848 0-41.369 18.52-41.369 41.37V446.05c0 22.85 18.52 41.37 41.37 41.37h165.475c102.812 0 186.16 83.348 186.16 186.16v20.685c0 68.543 55.564 124.107 124.106 124.107s124.107-55.564 124.107-124.107v-20.686c0-21.394-4.703-145.521-9.424-165.473h81.818c85.68 0 155.133-69.454 155.133-155.134-0.001-16.694-2.709-32.738-7.589-47.807z m-695.68 99.518h-82.738v-372.32h82.738v372.32z"  horiz-adv-x="1024" />

    
    <glyph glyph-name="sort-down" unicode="&#58902;" d="M694.813-0.008000000000038199v-109.707q0-8-5.143-13.142T676.528-128H530.252q-8 0-13.142 5.143t-5.143 13.142V-0.008000000000038199q0 8 5.143 13.142t13.142 5.142h146.276q8 0 13.142-5.142t5.143-13.142zM420.545 73.13q0-6.857-5.714-13.713l-182.274-182.274q-5.714-5.143-13.142-5.143-6.857 0-13.142 5.143L23.427 59.988000000000056q-8.57 9.142-4 19.999 4.571 11.428 17.142 11.428h109.707V877.65q0 8 5.143 13.142T164.56 895.934h109.707q8 0 13.142-5.142t5.143-13.142v-786.235H402.26q8 0 13.142-5.143t5.143-13.142zM804.52 292.54499999999996v-109.708q0-8-5.143-13.142t-13.142-5.142H530.252q-8 0-13.142 5.142t-5.143 13.142V292.54499999999996q0 7.999 5.143 13.142t13.142 5.142h255.983q8 0 13.142-5.142t5.143-13.142z m109.707 292.552V475.39q0-8-5.142-13.142t-13.142-5.143H530.252q-8 0-13.142 5.143t-5.143 13.142V585.097q0 8 5.143 13.142t13.142 5.143h365.69q8 0 13.143-5.143t5.142-13.142zM1023.934 877.65v-109.707q0-8-5.142-13.142t-13.142-5.143H530.252q-8 0-13.142 5.143t-5.143 13.142V877.65q0 8 5.143 13.142T530.252 895.934h475.398q8 0 13.142-5.142t5.142-13.142z"  horiz-adv-x="1024" />

    
    <glyph glyph-name="sort-up" unicode="&#58904;" d="M420.545 73.13q0-6.857-5.714-13.713l-182.274-182.274q-5.714-5.143-13.142-5.143-6.857 0-13.142 5.143L23.427 59.988000000000056q-8.57 9.142-4 19.999 4.571 11.428 17.142 11.428h109.707V877.65q0 8 5.143 13.142T164.56 895.934h109.707q8 0 13.142-5.142t5.143-13.142v-786.235H402.26q8 0 13.142-5.143t5.143-13.142z m603.39-73.138v-109.707q0-8-5.143-13.142T1005.65-128H530.252q-8 0-13.142 5.143t-5.143 13.142V-0.008000000000038199q0 8 5.143 13.142t13.142 5.142h475.398q8 0 13.142-5.142t5.142-13.142zM914.226 292.54499999999996v-109.708q0-8-5.142-13.142t-13.142-5.142H530.252q-8 0-13.142 5.142t-5.143 13.142V292.54499999999996q0 7.999 5.143 13.142t13.142 5.142h365.69q8 0 13.143-5.142t5.142-13.142zM804.52 585.097V475.39q0-8-5.143-13.142t-13.142-5.143H530.252q-8 0-13.142 5.143t-5.143 13.142V585.097q0 8 5.143 13.142t13.142 5.143h255.983q8 0 13.142-5.143t5.143-13.142zM694.813 877.65v-109.707q0-8-5.143-13.142t-13.142-5.143H530.252q-8 0-13.142 5.143t-5.143 13.142V877.65q0 8 5.143 13.142T530.252 895.934h146.276q8 0 13.142-5.142t5.143-13.142z"  horiz-adv-x="1024" />

    
    <glyph glyph-name="filter" unicode="&#58905;" d="M890.1 719.4c-12.8 31-42.8 51-76.4 51H212c-33.5 0-63.5-20-76.4-51-12.9-31-5.9-66.3 17.8-90.1l273-263.3v-262c0-9.3 3.6-18.3 10.1-25l125.2-129.5c6.9-7.2 16.3-11 25.9-11 4.5 0 9.1 0.9 13.5 2.6 13.6 5.5 22.5 18.7 22.5 33.4V367.7l248.5 261.5c23.8 23.8 30.8 59.1 18 90.2z m-68.9-39.2l-259-272.1c-6.8-6.8-10.5-15.9-10.5-25.5v-322l-53.2 58V381c0 9.5-3.8 18.7-10.5 25.4L204.4 680.2c-4.2 4.2-3.5 8.6-2.3 11.6 1.2 3 4 6.6 9.9 6.6h601.7c5.9 0 8.6-3.6 9.9-6.6 1.2-3 1.8-7.5-2.4-11.6z"  horiz-adv-x="1024" />

    


  </font>
</defs>
</svg>
